HIERARCHY
ROOT mixamorig:Hips
{
	OFFSET 0.00 0.00 0.00
	CHANNELS 6 Xposition Yposition Zposition Zrotation Yrotation Xrotation
	JOINT mixamorig:Spine
	{
		OFFSET	0.0003	0.3532	-0.0573
		CHANNELS 3 Zrotation Yrotation Xrotation
		JOINT mixamorig:Spine1
		{
			OFFSET	0.0003	0.4120	-0.0669
			CHANNELS 3 Zrotation Yrotation Xrotation
			JOINT mixamorig:Spine2
			{
				OFFSET	0.0003	0.4709	-0.0765
				CHANNELS 3 Zrotation Yrotation Xrotation
				JOINT mixamorig:Neck
				{
					OFFSET	0.0004	0.5298	-0.0860
					CHANNELS 3 Zrotation Yrotation Xrotation
					JOINT mixamorig:Head
					{
						OFFSET	0.0000	0.1895	0.1320
						CHANNELS 3 Zrotation Yrotation Xrotation
						End Site
						{
							OFFSET 0.0000 0.5886 0.4099
						}
					}
				}
				JOINT mixamorig:LeftShoulder
				{
					OFFSET	0.1849	0.4590	-0.0871
					CHANNELS 3 Zrotation Yrotation Xrotation
					JOINT mixamorig:LeftArm
					{
						OFFSET	0.3690	-0.1415	-0.0022
						CHANNELS 3 Zrotation Yrotation Xrotation
						JOINT mixamorig:LeftForeArm
						{
							OFFSET	0.3964	-0.6519	-0.1237
							CHANNELS 3 Zrotation Yrotation Xrotation
							JOINT mixamorig:LeftHand
							{
								OFFSET	0.5764	-0.6226	0.1472
								CHANNELS 3 Zrotation Yrotation Xrotation
								JOINT mixamorig:LeftHandThumb1
								{
									OFFSET	0.0197	-0.0796	0.1118
									CHANNELS 3 Zrotation Yrotation Xrotation
									JOINT mixamorig:LeftHandThumb2
									{
										OFFSET	0.0157	-0.0637	0.0895
										CHANNELS 3 Zrotation Yrotation Xrotation
										JOINT mixamorig:LeftHandThumb3
										{
											OFFSET	-0.0015	-0.0767	0.0821
											CHANNELS 3 Zrotation Yrotation Xrotation
											End Site
											{
												OFFSET 0.0127 -0.0774 0.0583
											}
										}
									}
								}
								JOINT mixamorig:LeftHandIndex1
								{
									OFFSET	0.1714	-0.2631	0.1872
									CHANNELS 3 Zrotation Yrotation Xrotation
									JOINT mixamorig:LeftHandIndex2
									{
										OFFSET	0.0060	-0.0801	0.0311
										CHANNELS 3 Zrotation Yrotation Xrotation
										JOINT mixamorig:LeftHandIndex3
										{
											OFFSET	-0.0321	-0.0621	0.0398
											CHANNELS 3 Zrotation Yrotation Xrotation
											End Site
											{
												OFFSET -0.0261 -0.0507 0.0323
											}
										}
									}
								}
								JOINT mixamorig:LeftHandMiddle1
								{
									OFFSET	0.1625	-0.2932	0.1100
									CHANNELS 3 Zrotation Yrotation Xrotation
									JOINT mixamorig:LeftHandMiddle2
									{
										OFFSET	0.0183	-0.0999	0.0183
										CHANNELS 3 Zrotation Yrotation Xrotation
										JOINT mixamorig:LeftHandMiddle3
										{
											OFFSET	-0.0325	-0.0777	0.0319
											CHANNELS 3 Zrotation Yrotation Xrotation
											End Site
											{
												OFFSET -0.0344 -0.0692 0.0305
											}
										}
									}
								}
								JOINT mixamorig:LeftHandRing1
								{
									OFFSET	0.1452	-0.3135	0.0420
									CHANNELS 3 Zrotation Yrotation Xrotation
									JOINT mixamorig:LeftHandRing2
									{
										OFFSET	0.0024	-0.0846	0.0071
										CHANNELS 3 Zrotation Yrotation Xrotation
										JOINT mixamorig:LeftHandRing3
										{
											OFFSET	-0.0346	-0.0713	0.0176
											CHANNELS 3 Zrotation Yrotation Xrotation
											End Site
											{
												OFFSET -0.0327 -0.0594 0.0159
											}
										}
									}
								}
								JOINT mixamorig:LeftHandPinky1
								{
									OFFSET	0.1155	-0.2931	-0.0339
									CHANNELS 3 Zrotation Yrotation Xrotation
									JOINT mixamorig:LeftHandPinky2
									{
										OFFSET	-0.0194	-0.0716	0.0062
										CHANNELS 3 Zrotation Yrotation Xrotation
										JOINT mixamorig:LeftHandPinky3
										{
											OFFSET	-0.0403	-0.0460	0.0127
											CHANNELS 3 Zrotation Yrotation Xrotation
											End Site
											{
												OFFSET -0.0260 -0.0424 0.0088
											}
										}
									}
								}
							}
						}
					}
				}
				JOINT mixamorig:RightShoulder
				{
					OFFSET	-0.1852	0.4590	-0.0850
					CHANNELS 3 Zrotation Yrotation Xrotation
					JOINT mixamorig:RightArm
					{
						OFFSET	-0.3711	-0.1415	0.0022
						CHANNELS 3 Zrotation Yrotation Xrotation
						JOINT mixamorig:RightForeArm
						{
							OFFSET	-0.3963	-0.6518	-0.1296
							CHANNELS 3 Zrotation Yrotation Xrotation
							JOINT mixamorig:RightHand
							{
								OFFSET	-0.5764	-0.6226	0.1473
								CHANNELS 3 Zrotation Yrotation Xrotation
								JOINT mixamorig:RightHandThumb1
								{
									OFFSET	-0.0193	-0.0819	0.1135
									CHANNELS 3 Zrotation Yrotation Xrotation
									JOINT mixamorig:RightHandThumb2
									{
										OFFSET	-0.0154	-0.0655	0.0908
										CHANNELS 3 Zrotation Yrotation Xrotation
										JOINT mixamorig:RightHandThumb3
										{
											OFFSET	0.0001	-0.0747	0.0791
											CHANNELS 3 Zrotation Yrotation Xrotation
											End Site
											{
												OFFSET -0.0224 -0.0736 0.0526
											}
										}
									}
								}
								JOINT mixamorig:RightHandIndex1
								{
									OFFSET	-0.1766	-0.2671	0.1923
									CHANNELS 3 Zrotation Yrotation Xrotation
									JOINT mixamorig:RightHandIndex2
									{
										OFFSET	-0.0025	-0.0741	0.0278
										CHANNELS 3 Zrotation Yrotation Xrotation
										JOINT mixamorig:RightHandIndex3
										{
											OFFSET	0.0319	-0.0619	0.0372
											CHANNELS 3 Zrotation Yrotation Xrotation
											End Site
											{
												OFFSET 0.0246 -0.0530 0.0305
											}
										}
									}
								}
								JOINT mixamorig:RightHandMiddle1
								{
									OFFSET	-0.1688	-0.3123	0.1112
									CHANNELS 3 Zrotation Yrotation Xrotation
									JOINT mixamorig:RightHandMiddle2
									{
										OFFSET	-0.0141	-0.0947	0.0219
										CHANNELS 3 Zrotation Yrotation Xrotation
										JOINT mixamorig:RightHandMiddle3
										{
											OFFSET	0.0360	-0.0687	0.0336
											CHANNELS 3 Zrotation Yrotation Xrotation
											End Site
											{
												OFFSET 0.0360 -0.0619 0.0317
											}
										}
									}
								}
								JOINT mixamorig:RightHandRing1
								{
									OFFSET	-0.1480	-0.3164	0.0412
									CHANNELS 3 Zrotation Yrotation Xrotation
									JOINT mixamorig:RightHandRing2
									{
										OFFSET	0.0000	-0.0825	0.0050
										CHANNELS 3 Zrotation Yrotation Xrotation
										JOINT mixamorig:RightHandRing3
										{
											OFFSET	0.0353	-0.0685	0.0150
											CHANNELS 3 Zrotation Yrotation Xrotation
											End Site
											{
												OFFSET 0.0308 -0.0591 0.0129
											}
										}
									}
								}
								JOINT mixamorig:RightHandPinky1
								{
									OFFSET	-0.1101	-0.2998	-0.0330
									CHANNELS 3 Zrotation Yrotation Xrotation
									JOINT mixamorig:RightHandPinky2
									{
										OFFSET	0.0161	-0.0703	0.0076
										CHANNELS 3 Zrotation Yrotation Xrotation
										JOINT mixamorig:RightHandPinky3
										{
											OFFSET	0.0385	-0.0439	0.0145
											CHANNELS 3 Zrotation Yrotation Xrotation
											End Site
											{
												OFFSET 0.0244 -0.0363 0.0109
											}
										}
									}
								}
							}
						}
					}
				}
			}
		}
	}
	JOINT mixamorig:LeftUpLeg
	{
		OFFSET	0.3433	-0.1962	0.0172
		CHANNELS 3 Zrotation Yrotation Xrotation
		JOINT mixamorig:LeftLeg
		{
			OFFSET	0.1178	-1.3592	-0.0187
			CHANNELS 3 Zrotation Yrotation Xrotation
			JOINT mixamorig:LeftFoot
			{
				OFFSET	0.0505	-1.0354	-0.0118
				CHANNELS 3 Zrotation Yrotation Xrotation
				JOINT mixamorig:LeftToeBase
				{
					OFFSET	0.1401	-0.2922	0.3846
					CHANNELS 3 Zrotation Yrotation Xrotation
					End Site
					{
						OFFSET 0.0538 -0.0024 0.1849
					}
				}
			}
		}
	}
	JOINT mixamorig:RightUpLeg
	{
		OFFSET	-0.3439	-0.1962	0.0123
		CHANNELS 3 Zrotation Yrotation Xrotation
		JOINT mixamorig:RightLeg
		{
			OFFSET	-0.1178	-1.3592	-0.0020
			CHANNELS 3 Zrotation Yrotation Xrotation
			JOINT mixamorig:RightFoot
			{
				OFFSET	-0.0505	-1.0354	-0.0192
				CHANNELS 3 Zrotation Yrotation Xrotation
				JOINT mixamorig:RightToeBase
				{
					OFFSET	-0.1401	-0.2923	0.3682
					CHANNELS 3 Zrotation Yrotation Xrotation
					End Site
					{
						OFFSET -0.0538 -0.0024 0.1832
					}
				}
			}
		}
	}
}
MOTION
Frames: 6
Frame Time: 0.0333333
0.0450 2.8175 -0.0017 -3.1814 -31.5048 1.7202 1.4864 0.7670 4.8096 3.1348 1.4692 9.6412 3.1348 1.4692 9.6412 1.4470 -38.8536 -0.8482 1.0221 -28.2729 -7.2861 2.5703 -7.8428 -0.9776 -17.6275 1.9824 -15.3307 -18.0362 7.2640 6.9239 31.9703 3.8124 19.1199 -7.3648 -9.2713 23.2633 6.0996 6.7949 2.1299 -5.2329 -6.4205 -9.6176 -8.8583 -12.3169 -3.9376 -20.1509 -10.7510 6.1040 -0.0000 -0.0000 0.0000 -26.9157 -13.4047 -7.1752 -24.3805 -7.6028 1.0814 0.0000 -0.0000 0.0000 -34.5466 -11.4492 -14.4286 -39.1894 -6.8868 -2.1620 -0.0000 -0.0000 0.0000 -23.2000 -7.3884 -23.4199 -47.6747 -10.7630 -0.3158 -9.3704 -0.6257 -2.4294 8.0404 4.0713 1.0232 1.1924 -15.3959 -10.2620 14.3133 23.2762 -9.9378 -24.6806 19.7327 12.8127 17.8397 5.3506 17.6666 -5.0306 -4.1362 13.7717 8.7552 11.0293 -10.0575 17.6897 12.3230 1.4856 31.0895 15.2568 4.3468 0.0000 0.0000 0.0000 19.1078 13.1014 -11.4029 46.6783 17.1008 1.2382 -0.0000 0.0000 -0.0000 17.9020 13.0343 -26.2384 60.3549 10.7164 -9.2721 0.0000 -0.0000 0.0000 9.9011 2.9736 -29.1566 63.2688 15.4322 -5.7830 6.9208 1.4781 -0.9044 0.7719 20.5692 -21.8338 -5.3053 -8.2536 31.3305 3.8139 -0.3733 -9.5002 0.8074 -3.0859 -2.7556 -1.8209 -20.0049 -2.5944 7.0409 25.3920 23.6361 -3.6534 -1.6277 -18.2396 3.1806 -1.9415 0.8274 
0.0505 2.8192 0.0076 -3.1839 -33.4315 1.8450 1.5204 0.4695 4.8128 3.1769 0.8667 9.6388 3.1770 0.8667 9.6388 1.1006 -38.5514 -0.7587 -0.2389 -28.9644 -6.4902 2.8015 -8.6186 -1.0783 -17.9499 2.5704 -14.8021 -18.1855 6.7103 6.5799 31.3870 3.7657 18.7568 -7.2547 -9.0720 23.1760 6.0297 6.8455 2.1943 -5.2329 -6.4205 -9.6176 -7.9003 -11.7447 -4.3764 -18.9993 -10.2550 6.1388 -0.0000 0.0000 -0.0000 -25.9510 -12.9946 -7.1192 -23.2018 -7.2437 1.2072 0.0000 0.0000 -0.0000 -33.7150 -11.1617 -14.2198 -38.0192 -6.6604 -2.0677 0.0000 -0.0000 -0.0000 -22.2725 -7.0708 -22.7553 -46.4787 -10.5430 -0.3329 -9.3704 -0.6256 -2.4294 8.1547 3.3149 1.0094 1.6635 -15.0660 -10.7787 14.0637 23.3626 -10.1848 -25.0984 19.8317 12.8208 17.8761 5.3837 17.7401 -5.0427 -4.1131 13.7710 8.7552 11.0293 -10.0575 18.3749 12.9976 1.5735 31.5401 15.4449 4.3629 0.0000 0.0000 0.0000 19.6344 13.3710 -11.3953 47.3593 17.3346 1.2771 0.0000 0.0000 0.0000 18.4709 13.2649 -26.2608 61.0376 10.8861 -9.3180 0.0000 -0.0000 0.0000 10.4178 3.1378 -29.1826 63.7581 15.5424 -5.7728 6.9208 1.4781 -0.9043 0.7041 21.4873 -21.4291 -4.7319 -7.4495 31.2917 3.6442 -0.3285 -10.0680 0.7894 -3.0597 -2.7323 -2.0065 -19.8818 -2.9421 7.1214 25.9016 23.3857 -3.3885 -1.4971 -17.7751 3.0800 -1.7001 0.8391 
0.0558 2.8208 0.0174 -3.1915 -35.3582 1.9728 1.5540 0.1719 4.8154 3.2185 0.2642 9.6354 3.2185 0.2642 9.6354 0.7562 -38.2488 -0.6717 -1.5193 -29.6402 -5.6717 3.0347 -9.3941 -1.1823 -18.2670 3.1614 -14.2766 -18.3314 6.1557 6.2377 30.8040 3.7154 18.3943 -7.1449 -8.8726 23.0891 5.9599 6.8962 2.2587 -5.2329 -6.4205 -9.6176 -6.9488 -11.1653 -4.8045 -17.8491 -9.7598 6.1838 -0.0000 0.0000 -0.0000 -24.9875 -12.5856 -7.0562 -22.0231 -6.8873 1.3403 0.0000 -0.0000 0.0000 -32.8832 -10.8771 -14.0070 -36.8492 -6.4359 -1.9689 -0.0000 0.0000 0.0000 -21.3418 -6.7640 -22.0860 -45.2836 -10.3227 -0.3453 -9.3704 -0.6257 -2.4294 8.2689 2.5584 0.9942 2.1308 -14.7319 -11.2917 13.8136 23.4479 -10.4323 -25.5165 19.9308 12.8282 17.9125 5.4168 17.8135 -5.0548 -4.0900 13.7704 8.7552 11.0293 -10.0575 19.0629 13.6711 1.6699 31.9912 15.6329 4.3805 0.0000 0.0000 0.0000 20.1617 13.6405 -11.3851 48.0414 17.5680 1.3190 0.0000 0.0000 -0.0000 19.0403 13.4956 -26.2808 61.7206 11.0564 -9.3618 0.0000 -0.0000 0.0000 10.9345 3.3023 -29.2070 64.2476 15.6525 -5.7616 6.9208 1.4781 -0.9043 0.6472 22.4070 -21.0155 -4.1598 -6.6503 31.2442 3.4418 -0.2879 -10.6240 0.7714 -3.0335 -2.7090 -2.1925 -19.7599 -3.2891 7.1979 26.4122 23.1311 -3.1210 -1.3686 -17.3032 2.9795 -1.4587 0.8505 
0.0611 2.8222 0.0275 -3.1766 -37.2796 2.0839 1.5801 -0.1205 4.8054 3.2443 -0.3265 9.6069 3.2443 -0.3265 9.6069 0.2631 -37.8105 -0.6023 -2.8861 -30.2524 -4.5989 3.2726 -10.1111 -1.2819 -18.5191 3.7544 -13.7882 -18.4837 5.6477 5.7871 30.1093 3.7695 18.4147 -7.0395 -8.7047 22.9253 5.8806 6.9376 2.3493 -5.2329 -6.4205 -9.6176 -5.8692 -10.4680 -5.2265 -16.5374 -9.1957 6.2475 -0.0000 -0.0000 0.0000 -23.8525 -12.1209 -6.9899 -20.7037 -6.4914 1.4980 0.0000 0.0000 -0.0000 -31.8353 -10.5546 -13.7882 -35.5221 -6.1836 -1.8512 0.0000 0.0000 -0.0000 -20.2069 -6.3953 -21.3553 -43.9050 -10.0681 -0.3537 -9.3704 -0.6256 -2.4294 8.3282 1.9434 0.9757 2.6461 -14.5306 -11.8050 13.4758 23.3940 -10.7793 -25.9399 20.0105 12.7964 17.9505 5.6219 17.9133 -5.0878 -4.1457 13.7983 8.7552 11.0293 -10.0575 19.6917 14.3486 1.8101 32.4102 15.8073 4.3982 0.0000 0.0000 0.0000 20.6297 13.8695 -11.3646 48.6964 17.7912 1.3620 0.0000 0.0000 0.0000 19.4934 13.6772 -26.2942 62.3416 11.2113 -9.3996 0.0000 0.0000 0.0000 11.3975 3.4505 -29.2298 65.0033 15.8427 -5.7360 6.9208 1.4781 -0.9043 0.5274 23.2720 -20.6033 -3.5344 -5.8204 31.2002 3.2157 -0.2493 -11.1877 0.7518 -3.0070 -2.6955 -2.3328 -19.5854 -3.6881 7.1606 26.7820 22.9207 -2.7575 -1.2334 -16.8634 2.8490 -1.2991 0.8138 
0.0662 2.8235 0.0381 -3.1662 -39.2009 2.1973 1.6059 -0.4128 4.7950 3.2699 -0.9172 9.5777 3.2699 -0.9172 9.5777 -0.2265 -37.3718 -0.5380 -4.2744 -30.8420 -3.5027 3.5123 -10.8278 -1.3848 -18.7662 4.3495 -13.3021 -18.6318 5.1386 5.3382 29.4146 3.8238 18.4344 -6.9346 -8.5364 22.7618 5.8014 6.9790 2.4399 -5.2329 -6.4205 -9.6176 -4.7973 -9.7631 -5.6342 -15.2271 -8.6331 6.3242 -0.0000 -0.0000 0.0000 -22.7188 -11.6575 -6.9144 -19.3843 -6.0993 1.6646 0.0000 0.0000 -0.0000 -30.7872 -10.2361 -13.5637 -34.1951 -5.9341 -1.7277 0.0000 0.0000 -0.0000 -19.0681 -6.0412 -20.6180 -42.5275 -9.8132 -0.3559 -9.3704 -0.6257 -2.4294 8.3881 1.3285 0.9565 3.1590 -14.3249 -12.3160 13.1385 23.3383 -11.1258 -26.3636 20.0899 12.7641 17.9889 5.8269 18.0133 -5.1209 -4.2014 13.8262 8.7552 11.0293 -10.0575 20.3242 15.0245 1.9584 32.8297 15.9815 4.4173 0.0000 -0.0000 -0.0000 21.0983 14.0983 -11.3422 49.3524 18.0140 1.4078 -0.0000 0.0000 -0.0000 19.9468 13.8589 -26.3062 62.9629 11.3667 -9.4358 0.0000 0.0000 0.0000 11.8606 3.5988 -29.2514 65.7597 16.0324 -5.7078 6.9208 1.4781 -0.9043 0.4174 24.1387 -20.1845 -2.9109 -4.9934 31.1531 2.9673 -0.2149 -11.7435 0.7322 -2.9805 -2.6821 -2.4744 -19.4118 -4.0874 7.1218 27.1513 22.7100 -2.3930 -1.1009 -16.4240 2.7184 -1.1396 0.7767 
0.0714 2.8246 0.0494 -3.1000 -41.0902 2.2656 1.6156 -0.6409 4.7785 3.2669 -1.3777 9.5386 3.2668 -1.3776 9.5386 -0.6875 -36.9939 -0.5628 -5.6382 -31.3180 -2.2939 3.7598 -11.5946 -1.5068 -18.8491 4.7915 -12.8930 -18.8130 4.6702 4.8538 28.9778 4.1450 18.6748 -6.8557 -8.3789 22.5821 5.7253 7.0011 2.5355 -5.2329 -6.4205 -9.6176 -3.6272 -8.9537 -6.0032 -13.8198 -8.0304 6.4208 -0.0000 -0.0000 0.0000 -21.4329 -11.1466 -6.8381 -17.9342 -5.6730 1.8578 0.0000 0.0000 -0.0000 -29.6050 -9.9221 -13.3469 -32.7259 -5.6613 -1.5844 0.0000 0.0000 -0.0000 -17.7767 -5.6429 -19.8534 -41.0114 -9.5327 -0.3512 -9.3704 -0.6257 -2.4294 8.5941 0.4858 0.9338 3.5196 -14.1239 -12.9968 12.7966 23.1290 -11.5628 -26.6277 20.1440 12.7010 18.0108 5.6994 18.0637 -5.0964 -4.1052 13.8283 8.7552 11.0293 -10.0575 20.9601 15.7446 2.1076 33.2276 16.1465 4.4366 -0.0000 -0.0000 0.0000 21.5579 14.3288 -11.3247 49.9933 18.2309 1.4550 -0.0000 0.0000 0.0000 20.4549 14.0629 -26.3158 63.6190 11.5315 -9.4724 0.0000 0.0000 -0.0000 12.3752 3.7796 -29.3350 66.4036 16.1937 -5.6858 6.9208 1.4781 -0.9043 0.2124 24.9325 -19.7571 -2.2425 -4.1389 31.0834 2.7110 -0.1835 -12.2903 0.7046 -2.9425 -2.6600 -2.6144 -19.2184 -4.5407 7.0190 27.4009 22.6023 -2.0050 -0.9760 -16.0488 2.5843 -1.0283 0.7158 
